<svg xmlns="http://www.w3.org/2000/svg" viewBox="607.2792272107356 133.53760307113086 930.4740599474687 1149.1015374463166">
<path stroke="none" fill="currentColor" fill-rule="evenodd" d="M1063.500000,1262.392767C1029.432648,1257.382673 1004.577965,1238.548747 991.719161,1208.000000C983.064729,1187.439608 982.487242,1161.478986 990.173152,1138.500000C994.745323,1124.830329 1005.065691,1107.772011 1016.823760,1094.449775L1021.147519,1089.550829L1024.810314,1094.025415C1026.824851,1096.486437 1034.386473,1104.817535 1041.613917,1112.538968L1054.754725,1126.577935L1049.887825,1133.038968C1040.011388,1146.150390 1034.915900,1159.937062 1034.933619,1173.500000C1034.946625,1183.454461 1036.936530,1190.309573 1041.670357,1196.707678C1049.794057,1207.687440 1060.376291,1212.561892 1074.408636,1211.787781C1088.169028,1211.028671 1098.209593,1204.062613 1104.371214,1191.000000C1110.275469,1178.483004 1109.015154,1160.368722 1100.949093,1141.814433C1093.066468,1123.682100 1084.152415,1111.417602 1062.000000,1088.225892C1052.925000,1078.725133 1042.928481,1067.925133 1039.785514,1064.225892C1030.739267,1053.578552 1020.634620,1032.634707 1018.527957,1020.165474C1018.140893,1017.874463 1017.643784,1016.000000 1017.423270,1016.000000C1017.202755,1016.000000 1014.368891,1018.017960 1011.125794,1020.484356C1004.016817,1025.890777 987.792750,1035.739348 967.500000,1046.966726C943.560294,1060.211856 936.828904,1064.847722 925.645085,1075.791942C911.447627,1089.685238 902.199282,1107.747458 899.169160,1127.500000C898.106727,1134.425712 897.105763,1144.397250 897.036041,1148.750000L897.000000,1151.000000L871.500000,1151.000000L846.000000,1151.000000L846.015828,1147.250000C846.049030,1139.383725 848.042169,1119.707384 849.559712,1112.264659C858.323524,1069.282899 886.763284,1033.689330 932.057765,1009.014839C966.964081,989.999375 978.646928,982.629108 996.173681,968.566530C1023.739894,946.448796 1068.211741,898.248669 1085.270788,872.000000C1103.480643,843.980588 1111.162829,817.695800 1111.136451,783.500000C1111.124305,767.755348 1110.015961,756.938177 1104.997877,723.589042C1102.298268,705.648006 1101.967353,683.776280 1104.277820,675.997069C1105.176740,672.970458 1108.294470,667.030995 1111.206110,662.798264C1125.073158,642.639350 1168.388350,598.387121 1190.592544,581.694463C1205.757705,570.293605 1223.494804,560.875483 1239.548998,555.699351C1261.096825,548.751982 1261.371323,548.721663 1306.803089,548.270884L1348.106179,547.861070L1349.189242,545.180535C1353.118640,535.455447 1358.577580,525.099992 1362.354027,520.207310C1385.002242,490.864781 1420.656684,478.972067 1455.500000,489.138016C1482.392160,496.984121 1504.537256,518.346996 1512.963299,544.571566C1520.539980,568.152646 1519.138892,590.345301 1508.683982,612.354184C1496.494369,638.014828 1473.164887,655.116230 1443.541936,660.105790C1429.246666,662.513622 1410.133112,659.707641 1395.435688,653.043511C1375.504322,644.006198 1357.611638,625.101029 1350.285276,605.338192L1347.500000,597.824921L1310.500000,598.245009C1274.234566,598.656758 1273.301935,598.718052 1263.523484,601.332409C1242.682093,606.904543 1222.340603,619.538792 1199.000000,641.408421C1183.243221,656.172174 1165.842124,674.775972 1159.194306,683.965340C1154.833432,689.993434 1154.492821,690.911818 1154.157860,697.545022C1153.944481,701.770525 1154.831958,711.936062 1156.343446,722.579682C1160.787188,753.871670 1161.325099,760.054926 1161.382212,780.500000C1161.441809,801.834487 1160.333444,813.315619 1156.362239,832.500000C1149.705652,864.657112 1134.378739,895.325743 1110.634323,924.000000C1071.369280,971.417294 1068.466742,976.657530 1068.538342,1000.000000C1068.600449,1020.247743 1071.362992,1025.273993 1097.194647,1052.138096C1122.368256,1078.317851 1132.553052,1091.960835 1143.002695,1113.500000C1156.794169,1141.927461 1160.859558,1168.352210 1155.467832,1194.522536C1148.968123,1226.070781 1122.821022,1253.148099 1091.755731,1260.501277C1085.228949,1262.046172 1068.677325,1263.154167 1063.500000,1262.392767z M1245.000000,1143.176216C1245.000000,1117.637178 1234.706262,1091.886223 1217.723732,1074.941530C1208.099929,1065.339170 1197.550770,1058.067994 1175.000000,1045.493518C1153.224236,1033.351191 1144.110888,1027.359226 1131.952359,1017.189985C1121.072351,1008.090082 1113.232341,999.902713 1105.275821,989.331519L1099.755986,981.997754L1105.403320,975.248877C1108.509353,971.536995 1115.815146,962.650000 1121.638415,955.500000C1127.461684,948.350000 1132.587101,942.362729 1133.028230,942.194953C1133.469359,942.027177 1134.124865,942.818053 1134.484910,943.952456C1135.723549,947.855062 1147.204128,962.281049 1156.344226,971.419905C1167.149791,982.224000 1181.618488,992.121488 1203.981656,1004.006867C1229.575407,1017.609207 1240.639371,1025.589376 1255.589430,1041.230305C1281.256250,1068.083236 1293.300529,1097.172924 1294.724315,1135.750000L1295.287155,1151.000000L1270.143577,1151.000000L1245.000000,1151.000000L1245.000000,1143.176216z M728.000000,1051.116842C728.000000,1041.761688 731.034373,1023.159429 734.054445,1014.000000C743.410688,985.623904 763.718116,960.431279 790.500000,943.975785C809.699997,932.178802 837.708375,922.831254 863.820728,919.505643C894.868053,915.551524 899.381900,914.827386 907.693041,912.467387C931.251186,905.777909 943.408707,894.868388 949.446529,875.000000C952.128679,866.173971 952.476640,849.849297 950.427023,829.000000C948.251418,806.869119 947.960876,773.547347 949.825392,760.000000C954.149234,728.583493 960.958562,703.592838 970.988955,682.328416C973.691662,676.598679 975.692137,671.368303 975.434455,670.705357C975.176773,670.042410 970.586105,665.211124 965.232971,659.969165C925.697204,621.254483 909.434243,609.644606 884.888025,602.612150C871.204123,598.691732 862.874090,598.000000 829.347195,598.000000L797.839110,598.000000L796.213907,602.250000C787.431800,625.215719 771.024393,643.134313 749.859233,652.874121C735.862764,659.315032 730.370814,660.491868 714.500000,660.451031C698.358576,660.409499 691.113817,658.918188 678.381167,653.016082C667.698541,648.064247 659.873936,642.597586 652.363876,634.839101C617.552325,598.876021 619.163372,543.181316 656.012304,508.711077C667.926918,497.565581 680.231065,491.112628 696.608816,487.420092C711.644672,484.030100 731.621809,485.574057 744.804488,491.144952C752.832441,494.537501 754.311223,495.305375 761.000000,499.554653C776.608137,509.470263 788.905936,524.943992 795.048209,542.395878L796.844629,547.500000L838.672315,548.033185C880.462250,548.565889 880.509476,548.568886 891.000000,551.353869C928.168796,561.221298 950.054437,574.877662 988.591928,612.250000C1000.567894,623.863881 1004.000000,626.519429 1004.000000,624.171794C1004.000000,623.028027 1018.571478,605.451062 1028.859031,594.185384L1037.364920,584.870768L973.549935,521.049939L909.734949,457.229111L903.617475,460.080819C892.862616,465.094280 885.850643,466.467400 871.000000,466.468137C855.388640,466.468912 849.683032,465.177377 835.500000,458.432273C791.148044,437.339564 775.557187,378.987936 803.321939,338.000000C807.855987,331.306576 819.726197,319.303845 826.145916,314.921212C846.968931,300.705696 877.486045,297.024302 901.000000,305.891282C915.926057,311.519814 931.485157,323.799894 940.744148,337.259502C950.450862,351.369957 953.965102,361.892688 954.708593,379.073408C955.321580,393.238430 953.729217,403.790129 949.305389,414.877413L946.760801,421.254825L1009.130400,483.837256C1043.433680,518.257593 1071.648967,546.661724 1071.831038,546.957548C1072.270078,547.670887 1196.000000,423.164772 1196.000000,422.009640C1196.000000,421.516924 1194.685579,417.150690 1193.079065,412.306897C1185.454829,389.319098 1186.765071,367.356264 1196.971739,347.056209C1207.665887,325.786604 1228.303246,309.107031 1251.000000,303.389366C1261.980062,300.623318 1282.743795,300.802286 1293.112031,303.752339C1327.660673,313.582396 1351.298176,343.159106 1353.649040,379.500000C1355.746677,411.926395 1337.448395,443.857166 1308.663127,458.001079C1296.001866,464.222309 1289.245948,466.047078 1276.380027,466.720725C1262.374969,467.454015 1248.160740,464.693785 1237.232934,459.118834L1233.242556,457.083095L1213.871278,476.888903C1203.217075,487.782097 1169.704905,521.850900 1139.399789,552.597355C1076.531409,616.381298 1069.719269,623.582934 1055.305379,641.500000C1029.413066,673.685225 1009.864762,712.992721 1003.087046,746.500000C998.220308,770.559900 997.481485,793.436604 1000.471083,827.500000C1004.093858,868.777793 999.624210,896.532425 985.990745,917.416798C971.115412,940.203523 945.357891,956.285257 910.573326,964.503739C900.880612,966.793818 895.042334,967.595024 870.000000,970.071754C831.513088,973.878175 801.636387,991.269359 787.533879,1018.075165C783.117146,1026.470415 779.149570,1040.293728 778.223707,1050.512455L777.500000,1058.500000L752.750000,1058.767470L728.000000,1059.034939L728.000000,1051.116842z M1365.628438,1055.892189C1365.282797,1054.163985 1365.000000,1051.063951 1365.000000,1049.003225C1365.000000,1043.448440 1360.559199,1026.956855 1357.130637,1019.779154C1349.433893,1003.666010 1336.687429,991.508790 1317.500000,981.980566C1301.942330,974.254831 1291.728103,971.675063 1264.500000,968.594555C1252.400000,967.225597 1238.575854,965.188970 1233.779676,964.068719C1215.141542,959.715378 1197.442288,952.398291 1184.500000,943.695899C1177.634137,939.079293 1162.331761,924.529232 1158.447464,918.924190L1155.829118,915.145916L1160.159471,909.322958C1166.197990,901.203056 1173.094978,887.111411 1177.023668,874.866717C1178.853047,869.165023 1180.688346,864.105258 1181.102110,863.622796C1181.515873,863.140334 1182.382774,864.707799 1183.028556,867.106050C1188.084266,885.881523 1206.998499,903.196964 1230.883999,910.916345C1240.265439,913.948265 1255.742890,916.720003 1270.500000,918.010873C1321.562570,922.477540 1366.188179,944.617289 1390.662894,977.626335C1405.652344,997.842604 1414.339157,1023.284419 1415.203325,1049.500000L1415.500000,1058.500000L1390.878438,1058.767189L1366.256876,1059.034378L1365.628438,1055.892189z M1038.555705,869.250000C1038.181238,864.437500 1037.016015,854.425000 1035.966320,847.000000C1028.753524,795.980407 1028.450788,776.731552 1034.464345,751.500000C1038.448410,734.783742 1043.702715,721.469448 1052.746107,705.174416L1056.256669,698.848833L1060.726617,708.174416C1072.056396,731.811558 1078.346715,754.514400 1079.629052,776.396551C1080.344007,788.596738 1078.290569,805.495063 1074.512756,818.500000C1071.629883,828.424149 1063.001801,847.210663 1057.888787,854.696507C1054.593455,859.521125 1040.019003,878.000000 1039.509116,878.000000C1039.359207,878.000000 1038.930172,874.062500 1038.555705,869.250000z M729.365930,606.140618C758.173613,591.958642 757.478622,552.870046 728.175146,539.166966C720.661502,535.653387 710.237259,535.539871 701.753341,538.879244C693.751305,542.028941 685.862410,549.502768 681.774113,557.807277C678.808751,563.830783 678.500000,565.308634 678.500000,573.478973C678.500000,581.264865 678.883471,583.321504 681.300750,588.500000C690.046139,607.235104 711.298681,615.035095 729.365930,606.140618z M1445.418081,607.139262C1451.815673,604.309302 1460.448588,595.816404 1463.742765,589.111786C1466.221045,584.067755 1466.500000,582.437695 1466.500000,573.000000C1466.500000,563.159072 1466.301859,562.121089 1463.343317,556.463377C1459.497513,549.108925 1452.757922,542.703292 1445.175146,539.195467C1440.575633,537.067713 1437.980308,536.563475 1431.481954,536.535060C1424.444541,536.504288 1422.669120,536.891094 1416.965399,539.697738C1408.619240,543.804653 1402.046416,550.143767 1398.411464,557.591950C1395.854549,562.831185 1395.526553,564.577155 1395.514073,573.015174C1395.501132,581.764713 1395.764467,583.068029 1398.786748,589.212534C1403.554672,598.906054 1412.680340,606.437061 1422.734467,608.975518C1428.436446,610.415148 1440.157352,609.466332 1445.418081,607.139262z M1076.299690,504.652029C1075.859861,503.910645 1068.862500,497.051554 1060.750000,489.409605L1046.000000,475.515151L1046.000000,400.702547L1046.000000,325.889942L1040.288940,323.364240C1019.653186,314.238130 1003.715363,299.331364 994.063853,280.129567C985.599106,263.288850 982.945752,242.445867 986.854796,223.500000C990.599768,205.349333 1002.214506,185.808591 1016.310712,173.943097C1024.862658,166.744489 1040.171068,158.685285 1050.738372,155.818450C1061.079882,153.012871 1081.491468,152.745970 1090.879004,155.293573C1116.841198,162.339228 1137.570916,179.186219 1149.031521,202.553980C1155.320791,215.377575 1157.243263,224.129568 1157.366787,240.500000C1157.491226,256.991896 1155.865930,265.223505 1150.023668,277.690567C1140.192032,298.670731 1125.827721,312.812291 1104.455832,322.551774L1097.000000,325.949506L1096.957902,358.224753C1096.934748,375.976139 1096.926633,409.467945 1096.939869,432.650989C1096.959232,466.565904 1096.681750,475.739602 1095.519761,479.600600C1093.890132,485.015443 1080.228296,506.000000 1078.332632,506.000000C1077.654343,506.000000 1076.739520,505.393413 1076.299690,504.652029z M1083.186085,274.698405C1099.326485,268.458059 1107.864333,255.369821 1106.783278,238.524689C1105.706664,221.748752 1094.123684,208.366387 1077.801512,205.040681C1059.219136,201.254450 1039.768574,215.330367 1036.130729,235.196853C1033.739369,248.256212 1039.764520,262.613796 1050.831586,270.228137C1060.532317,276.902415 1073.022150,278.628076 1083.186085,274.698405z"/>
</svg>